<svg id="Layer_1" enable-background="new 0 0 512 512" height="512" viewBox="0 0 512 512" width="512" xmlns="http://www.w3.org/2000/svg"><path d="m387.905 0h-263.811c-66.351 0-120.332 53.981-120.332 120.333v162.5c0 63.836 49.97 116.223 112.847 120.102v97.065c0 4.539 2.562 8.69 6.619 10.726 1.702.854 3.545 1.274 5.38 1.274 2.539 0 5.063-.805 7.175-2.38l142.757-106.455h109.367c66.352 0 120.333-53.981 120.333-120.333v-162.5c-.002-66.351-53.983-120.332-120.335-120.332zm96.333 282.833c0 53.118-43.215 96.333-96.333 96.333h-113.348c-2.585 0-5.101.835-7.173 2.38l-126.775 94.537v-84.917c0-6.627-5.373-12-12-12h-4.514c-53.118 0-96.333-43.214-96.333-96.333v-162.5c0-53.118 43.214-96.333 96.332-96.333h263.811c53.118 0 96.333 43.215 96.333 96.333z"/></svg>