<svg height="512" viewBox="0 0 512 512" width="512" xmlns="http://www.w3.org/2000/svg"><g id="Layer_2" data-name="Layer 2"><g id="_01.favourite" data-name="01.favourite"><circle id="background" cx="256" cy="256" fill="#ff2147" r="256"/><path d="m394 227.56c-3.78 21.49-12.5 41-24.29 59.16-15.71 24.21-35.77 44.28-58.22 62.19a428.49 428.49 0 0 1 -41.34 28.9c-9 5.55-18.25 6.1-27.28.6-25.14-15.31-48.67-32.75-69.54-53.62-15.38-15.39-28.69-32.37-39.08-51.54-11.4-21-18.4-43.38-18.25-67.45.16-24.9 10.28-45.26 30.08-60.51 14.77-11.37 31.67-16.39 50.22-15.44 15.67.8 29.39 7.13 41.79 16.29 5.91 4.37 17.48 14.8 17.67 15 5-4.27 9.77-8.63 14.85-12.58 11.54-9 24.15-15.81 38.83-17.93 20.53-3 39.21 2 55.82 14.22a73.74 73.74 0 0 1 29.07 45.15c2.67 12.5 1.83 25.07-.33 37.56z" fill="#fff"/></g></g></svg>