<svg id="Layer_1" enable-background="new 0 0 512 512" height="512" viewBox="0 0 512 512" width="512" xmlns="http://www.w3.org/2000/svg"><path clip-rule="evenodd" d="m256 512c140.997 0 256-115.003 256-256s-115.003-256-256-256-256 115.003-256 256 115.003 256 256 256z" fill="#2196f3" fill-rule="evenodd"/><path d="m126.318 206.456h56.704v163.048c-1.604 7.982-8.984 13.959-17.324 13.959h-39.38c-9.549 0-17.318-7.775-17.318-17.324v-142.365c0-9.548 7.769-17.318 17.318-17.318zm269.641 18.977c-8.856-11.353-24.777-18.976-39.617-18.976h-83.529c-1.33 0-2.582-.626-3.383-1.683-.808-1.057-1.069-2.436-.711-3.718l10.557-37.862c10.162-36.434-3.25-46.603-34.089-59.723-2.885-1.227-5.692-1.245-8.589-.061-2.897 1.178-4.884 3.153-6.087 6.044l-38.985 93.594v164.045l39.283 16.37h104.03c30.767 0 42.284-32.674 45.807-46.718l21.509-85.649c2.782-11.085-1.834-20.075-6.196-25.663z" fill="#fff"/></svg>