<svg id="Layer_1" enable-background="new 0 0 512 512" height="512" viewBox="0 0 512 512" width="512" xmlns="http://www.w3.org/2000/svg"><path d="m476.229 223.454c-13.977-16.845-35.861-27.309-57.113-27.309h-56.219c12.652-20.162 22.174-40.451 27.977-59.771 8.855-29.482 8.545-55.182-.897-74.322-10.635-21.558-32.187-33.431-60.683-33.431-6.481 0-12.322 3.91-14.792 9.902-22.188 53.817-80.062 131.167-134.589 182.122-5.564-19.327-23.395-33.511-44.488-33.511h-68.5c-25.529 0-46.299 20.77-46.299 46.298v203.646c0 25.529 20.77 46.299 46.299 46.299h68.5c15.617 0 29.443-7.781 37.833-19.661 12.692 12.211 29.518 19.661 47.955 19.661h172.481c19.068 0 36.048-8.119 49.106-23.479 10.764-12.663 18.409-29.77 22.107-49.471l25.423-135.427c3.411-18.17-1.597-36.476-14.101-51.546zm-326.506 213.625c0 7.884-6.414 14.299-14.298 14.299h-68.5c-7.884 0-14.299-6.415-14.299-14.299v-203.646c0-7.884 6.415-14.298 14.299-14.298h68.5c7.884 0 14.298 6.414 14.298 14.298zm309.156-167.983-25.422 135.428c-4.252 22.651-16.931 46.854-39.764 46.854h-172.481c-21.774 0-39.488-19.694-39.488-43.902v-145.741c60.311-50.068 127.854-136.057 157.672-200.327 15.909 2.692 20.279 11.549 21.884 14.801 10.385 21.051 1.766 69.522-41.697 126.199-3.707 4.833-4.347 11.353-1.652 16.815s8.257 8.921 14.349 8.921h86.837c11.8 0 24.552 6.179 32.486 15.742 4.467 5.386 9.357 14.13 7.276 25.21z"/></svg>