<svg id="Layer_1" height="512" viewBox="0 0 200 200" width="512" xmlns="http://www.w3.org/2000/svg" data-name="Layer 1"><path d="m7.19 182.07a7 7 0 0 1 -7-6.48c-.19-2.17-3.86-53.53 27.14-87.09 15.6-16.9 37-26.12 63.82-27.47v-22.42a20.63 20.63 0 0 1 33.72-15.93l66.31 54.51a24.11 24.11 0 0 1 0 37.27l-66.31 54.54a20.63 20.63 0 0 1 -33.72-16v-22.09c-73.23 2.42-76.85 42.77-77 44.54a7 7 0 0 1 -6.89 6.62zm91-65.27a7 7 0 0 1 7 7v29.2a6.62 6.62 0 0 0 10.81 5.16l66.32-54.51a10.14 10.14 0 0 0 0-15.65l-66.32-54.51a6.62 6.62 0 0 0 -10.83 5.12v29.25a7 7 0 0 1 -7 7c-26 0-46.31 7.77-60.48 23.08-12.11 13.08-18.08 29.84-21 44.34 17.09-16.92 44.48-25.48 81.46-25.48z"/></svg>